PathFileType	4	(X/Y/Z)	s07c0403.trc
DataRate	CameraRate	NumFrames	NumMarkers	Units	OrigDataRate	OrigDataStartFrame	OrigNumFrames
200	200	4	48	mm	200	1750	2000
Frame#	Time	racr			lacr			c7			jug			rlel			rdr			llel			ldr			s2			lic			ric			lasi			rasi			rpsi			lpsi			rgt			lgt			rth1			rth2			rth3			rth4			rlfc			rmfc			rsh1			rsh2			rsh3			rsh4			rlmal			rcal			rtoe			rmt5			lth1			lth2			lth4			lth3			llfc			lmfc			lsh1			lsh2			lsh3			lsh4			llmal			lcal			ltoe			lmt5			SBIKE			LBIKE			RBIKE			
		X1	Y1	Z1	X2	Y2	Z2	X3	Y3	Z3	X4	Y4	Z4	X5	Y5	Z5	X6	Y6	Z6	X7	Y7	Z7	X8	Y8	Z8	X9	Y9	Z9	X10	Y10	Z10	X11	Y11	Z11	X12	Y12	Z12	X13	Y13	Z13	X14	Y14	Z14	X15	Y15	Z15	X16	Y16	Z16	X17	Y17	Z17	X18	Y18	Z18	X19	Y19	Z19	X20	Y20	Z20	X21	Y21	Z21	X22	Y22	Z22	X23	Y23	Z23	X24	Y24	Z24	X25	Y25	Z25	X26	Y26	Z26	X27	Y27	Z27	X28	Y28	Z28	X29	Y29	Z29	X30	Y30	Z30	X31	Y31	Z31	X32	Y32	Z32	X33	Y33	Z33	X34	Y34	Z34	X35	Y35	Z35	X36	Y36	Z36	X37	Y37	Z37	X38	Y38	Z38	X39	Y39	Z39	X40	Y40	Z40	X41	Y41	Z41	X42	Y42	Z42	X43	Y43	Z43	X44	Y44	Z44	X45	Y45	Z45	X46	Y46	Z46	X47	Y47	Z47	X48	Y48	Z48	
1750	8.7500	736.589939	1392.850946	-48.266325	770.521521	1392.019006	-389.048797	750.274998	1456.653500	-218.636788	714.963962	1312.917805	-224.940855	509.804754	1128.255072	44.506451	690.519284	937.198603	-62.983590	523.614578	1160.518422	-523.125869	687.617606	931.794924	-451.547567	166.962664	1257.958133	-254.775329	335.512221	1269.062124	-401.279904	335.398045	1282.553366	-108.434511	346.279739	1188.085450	-377.493470	350.448466	1231.940929	-125.964872	198.592938	1295.406534	-207.959188	214.091815	1295.355801	-317.490473	281.688545	1173.669569	-58.387616	233.746932	1128.287522	-412.800201	410.079253	1085.202415	-63.669452	488.665099	1045.625446	-78.437689	537.652812	976.628406	-78.276632	507.194202	1071.093657	-98.007047	616.821223	868.587100	-117.409576	600.116777	860.577624	-223.825759	511.616701	781.257439	-88.664748	447.949125	721.189101	-106.248832	366.558064	692.805785	-93.732108	455.259584	711.410421	-144.712795	243.771906	628.968397	-84.232927	164.834598	652.453966	-111.957818	342.776186	422.870972	-132.916994	269.841709	459.771844	-59.388117	230.710254	1011.982478	-426.922492	254.171835	927.395045	-433.725131	290.516933	927.081541	-428.192345	232.338339	840.958884	-429.586451	238.004998	671.899637	-398.652299	228.756762	653.960331	-304.645992	168.375271	545.640844	-418.772936	168.591713	467.608730	-400.887571	100.982500	390.896549	-403.445994	164.688079	462.650483	-359.142726	41.042668	268.671517	-396.308021	-34.555052	252.151513	-362.315733	237.737567	149.908941	-362.881594	151.735232	147.421205	-426.506371	-261.832785	964.520807	-237.979955	-82.830759	78.971728	-436.683299	-82.751977	79.220340	-39.150828	
1751	8.7550	735.949210	1391.619066	-46.150153	770.703781	1391.005429	-387.345490	750.936676	1455.075206	-216.644759	714.928381	1311.679630	-223.413327	508.319710	1127.059735	45.047340	690.394634	937.154778	-62.901625	524.095168	1160.669896	-523.468770	687.159841	931.412827	-451.258578	166.856207	1259.909049	-255.130350	336.126562	1269.923045	-401.031401	334.734920	1284.263693	-108.118497	346.339733	1189.121769	-376.993965	350.079882	1233.522084	-125.865988	198.528883	1297.366347	-208.202024	214.276293	1297.010828	-317.819265	281.305162	1175.648935	-58.350139	234.038466	1129.295873	-413.009826	409.603093	1086.901241	-64.405195	487.956418	1047.970592	-79.203127	536.947441	978.918694	-79.552565	506.661707	1073.359066	-98.989924	617.526944	871.303469	-119.570820	599.901976	863.627425	-225.709256	513.729465	782.560526	-90.347089	450.707726	721.411817	-107.708678	369.917812	691.915814	-94.612284	457.809313	712.266887	-146.397896	247.144541	625.987758	-84.718235	169.458144	645.318256	-112.422130	354.126889	424.135797	-133.157800	279.786847	458.159088	-59.520152	231.879286	1012.953591	-426.500980	255.602758	928.552237	-432.635486	291.856869	928.407891	-426.998606	234.129283	841.928032	-428.786987	239.707146	672.640650	-398.388457	229.922261	654.847287	-303.957967	167.706737	547.739466	-418.148402	166.182772	469.931185	-400.457157	96.649647	394.627328	-402.762973	161.931181	465.006151	-358.303778	33.708202	273.839574	-395.957616	-42.138785	258.581182	-361.954260	228.099624	151.433453	-362.711837	142.104830	150.765710	-426.243336	-261.826557	964.527504	-237.918480	-82.852325	78.996101	-436.690690	-82.797561	79.208718	-39.131250	
1752	8.7600	735.539497	1390.217058	-44.093270	770.973569	1389.911835	-385.686372	751.716996	1453.433931	-214.791070	714.997143	1310.583704	-221.881895	507.155198	1125.695787	45.471155	690.186514	937.085214	-62.861977	524.622179	1160.790909	-523.742454	686.604972	930.904170	-451.004837	166.756223	1262.303473	-255.116204	336.475949	1271.438479	-400.596150	334.183891	1286.137761	-107.709466	346.220545	1190.722704	-376.540746	349.823774	1235.278496	-125.732969	198.562458	1299.807874	-208.202199	214.453886	1299.180878	-317.831235	280.969134	1177.890986	-58.301058	234.128695	1130.788348	-413.169670	408.911054	1088.478811	-65.119899	486.919696	1049.705811	-80.000456	538.280442	980.684645	-81.717860	505.825504	1075.287216	-99.882128	617.664705	873.481545	-121.721861	598.973545	865.966136	-227.608490	514.860843	783.247832	-91.984901	452.726077	721.279055	-109.137918	372.419761	690.352874	-95.934357	458.909296	711.624048	-148.939892	250.058375	622.394210	-85.297571	169.300480	639.224680	-112.107066	365.030627	424.968262	-133.330906	289.643768	455.868235	-59.670703	233.116371	1014.198991	-426.023011	257.653514	930.023504	-431.483892	293.820645	930.149529	-425.696833	238.143106	842.911937	-426.187848	243.153124	673.447879	-398.175859	232.960748	655.877684	-303.654401	168.417050	550.084954	-417.589369	164.649664	472.679880	-400.026696	93.303273	398.972006	-402.142472	160.258853	467.540900	-357.530711	26.995948	279.973891	-395.656570	-49.126554	266.248365	-361.542723	218.624987	153.461579	-362.889985	132.704764	154.683059	-426.013694	-261.809385	964.558164	-237.846871	-82.833058	79.013159	-436.693154	-82.759378	79.203736	-39.155754	
1753	8.7650	735.318081	1388.773209	-42.222930	771.193475	1388.840583	-384.165867	752.649034	1451.712572	-213.102241	714.918416	1309.229610	-220.602112	505.769042	1124.575021	45.745272	689.922808	936.977497	-62.898860	525.190944	1160.764255	-523.936463	685.966080	930.176622	-450.639247	166.711815	1265.001800	-254.943186	336.707002	1273.396482	-399.914227	333.823606	1288.096359	-107.243989	345.977364	1192.753478	-375.996093	349.619042	1237.203894	-125.608346	198.783391	1302.342985	-208.131003	214.604747	1301.750058	-317.569411	280.553732	1180.181558	-58.233258	234.093892	1132.684081	-413.285360	407.966934	1089.870648	-65.664267	485.837385	1051.033787	-80.875272	537.065983	981.934072	-83.274796	504.894669	1076.740248	-100.713226	617.084730	874.677076	-123.961494	597.338353	867.414014	-229.415540	514.906354	783.403571	-93.674446	453.691092	720.407789	-110.470037	373.868968	688.244025	-96.998376	460.023867	710.837059	-150.184937	252.515934	617.895946	-85.749764	170.927856	631.150430	-112.160918	375.528422	425.034061	-133.697179	299.126604	452.969453	-59.722210	234.613126	1015.589582	-425.609491	260.294813	931.788749	-430.379466	296.376231	932.480529	-424.324902	241.388279	844.102960	-425.279737	248.222841	674.357663	-398.088034	237.713630	657.274196	-303.651577	170.455985	552.726707	-417.112337	163.991231	475.838872	-399.607003	91.134380	403.875048	-401.732010	159.806445	470.770841	-357.026167	21.026675	287.052373	-395.423712	-55.134159	275.028648	-361.269970	209.592765	155.714921	-362.727220	123.703638	159.339424	-425.771147	-261.801227	964.583370	-237.714381	-82.844773	79.022100	-436.668752	-82.781339	79.186920	-39.159863	
